<svg preserveAspectRatio="none" width="100%" height="100%" overflow="visible" style="display: block;" viewBox="0 0 129.78 25" fill="none" xmlns="http://www.w3.org/2000/svg">
<g id="Paragraph">
<path id="Icon" d="M6.85 14.825L10 12.925L13.15 14.85L12.325 11.25L15.1 8.85L11.45 8.525L10 5.125L8.55 8.5L4.9 8.825L7.675 11.25L6.85 14.825V14.825M3.825 19L5.45 11.975L0 7.25L7.2 6.625L10 0L12.8 6.625L20 7.25L14.55 11.975L16.175 19L10 15.275L3.825 19V19M10 10.25V10.25V10.25V10.25V10.25V10.25V10.25V10.25V10.25V10.25V10.25V10.25" fill="var(--fill-0, #6A9DD1)"/>
<path id="Icon_2" d="M29.55 14.825L32.7 12.925L35.85 14.85L35.025 11.25L37.8 8.85L34.15 8.525L32.7 5.125L31.25 8.5L27.6 8.825L30.375 11.25L29.55 14.825V14.825M26.525 19L28.15 11.975L22.7 7.25L29.9 6.625L32.7 0L35.5 6.625L42.7 7.25L37.25 11.975L38.875 19L32.7 15.275L26.525 19V19M32.7 10.25V10.25V10.25V10.25V10.25V10.25V10.25V10.25V10.25V10.25V10.25V10.25" fill="var(--fill-0, #6A9DD1)"/>
<path id="Icon_3" d="M52.25 14.825L55.4 12.925L58.55 14.85L57.725 11.25L60.5 8.85L56.85 8.525L55.4 5.125L53.95 8.5L50.3 8.825L53.075 11.25L52.25 14.825V14.825M49.225 19L50.85 11.975L45.4 7.25L52.6 6.625L55.4 0L58.2 6.625L65.4 7.25L59.95 11.975L61.575 19L55.4 15.275L49.225 19V19M55.4 10.25V10.25V10.25V10.25V10.25V10.25V10.25V10.25V10.25V10.25V10.25V10.25" fill="var(--fill-0, #6A9DD1)"/>
<path id="Icon_4" d="M74.95 14.825L78.1 12.925L81.25 14.85L80.425 11.25L83.2 8.85L79.55 8.525L78.1 5.125L76.65 8.5L73 8.825L75.775 11.25L74.95 14.825V14.825M71.925 19L73.55 11.975L68.1 7.25L75.3 6.625L78.1 0L80.9 6.625L88.1 7.25L82.65 11.975L84.275 19L78.1 15.275L71.925 19V19M78.1 10.25V10.25V10.25V10.25V10.25V10.25V10.25V10.25V10.25V10.25V10.25V10.25" fill="var(--fill-0, #6A9DD1)"/>
<path id="Icon_5" d="M97.65 14.825L100.8 12.925L103.95 14.85L103.125 11.25L105.9 8.85L102.25 8.525L100.8 5.125L99.35 8.5L95.7 8.825L98.475 11.25L97.65 14.825V14.825M94.625 19L96.25 11.975L90.8 7.25L98 6.625L100.8 0L103.6 6.625L110.8 7.25L105.35 11.975L106.975 19L100.8 15.275L94.625 19V19M100.8 10.25V10.25V10.25V10.25V10.25V10.25V10.25V10.25V10.25V10.25V10.25V10.25" fill="var(--fill-0, #6A9DD1)"/>
</g>
</svg>
