<svg preserveAspectRatio="none" width="100%" height="100%" overflow="visible" style="display: block;" viewBox="0 0 312.667 20" fill="none" xmlns="http://www.w3.org/2000/svg">
<g id="Container">
<path id="Icon" d="M0 20V17.5H7.1875C6.72917 15.7292 5.85938 14.2031 4.57812 12.9219C3.29688 11.6406 1.77083 10.7708 0 10.3125C0.416667 10.2083 0.828125 10.1302 1.23438 10.0781C1.64062 10.026 2.0625 10 2.5 10C5.29167 10 7.65625 10.9688 9.59375 12.9062C11.5312 14.8438 12.5 17.2083 12.5 20H0V20M15 20C15 19.125 14.9062 18.2552 14.7188 17.3906C14.5312 16.526 14.2604 15.6979 13.9062 14.9062C14.7812 13.4271 15.974 12.2396 17.4844 11.3438C18.9948 10.4479 20.6667 10 22.5 10C22.9375 10 23.3594 10.026 23.7656 10.0781C24.1719 10.1302 24.5833 10.2083 25 10.3125C23.2292 10.7708 21.7083 11.6406 20.4375 12.9219C19.1667 14.2031 18.2917 15.7292 17.8125 17.5H25V20H15V20M12.5 12.5312C12.5 11.1771 12.75 9.90625 13.25 8.71875C13.75 7.53125 14.4375 6.48438 15.3125 5.57812C16.1875 4.67188 17.2135 3.94792 18.3906 3.40625C19.5677 2.86458 20.8229 2.57292 22.1562 2.53125C20.9896 3.26042 19.9688 4.15625 19.0938 5.21875C18.2188 6.28125 17.5417 7.46875 17.0625 8.78125C16.1458 9.21875 15.3073 9.75521 14.5469 10.3906C13.7865 11.026 13.1042 11.7396 12.5 12.5312V12.5312M10.2188 10.1875C9.96875 10 9.71875 9.82292 9.46875 9.65625C9.21875 9.48958 8.95833 9.32292 8.6875 9.15625C8.6875 9.03125 8.69792 8.90104 8.71875 8.76562C8.73958 8.63021 8.75 8.5 8.75 8.375C8.75 6.79167 8.5 5.29167 8 3.875C7.5 2.45833 6.79167 1.16667 5.875 0C7.25 0.5625 8.44271 1.36979 9.45312 2.42188C10.4635 3.47396 11.2396 4.6875 11.7812 6.0625C11.4062 6.6875 11.0833 7.34896 10.8125 8.04688C10.5417 8.74479 10.3438 9.45833 10.2188 10.1875V10.1875" fill="var(--fill-0, #6A9DD1)"/>
</g>
</svg>
