<svg preserveAspectRatio="none" width="100%" height="100%" overflow="visible" style="display: block;" viewBox="0 0 312.667 23.7188" fill="none" xmlns="http://www.w3.org/2000/svg">
<g id="Container">
<path id="Icon" d="M2.5 16.25C1.8125 16.25 1.22396 16.0052 0.734375 15.5156C0.244792 15.026 0 14.4375 0 13.75V2.5C0 1.8125 0.244792 1.22396 0.734375 0.734375C1.22396 0.244792 1.8125 0 2.5 0H25C25.6875 0 26.276 0.244792 26.7656 0.734375C27.2552 1.22396 27.5 1.8125 27.5 2.5V13.75C27.5 14.4375 27.2552 15.026 26.7656 15.5156C26.276 16.0052 25.6875 16.25 25 16.25H2.5V16.25M2.5 2.5V2.5V2.5V13.75V13.75V13.75H25V13.75V13.75V2.5V2.5V2.5H2.5V2.5M2.59375 20.625L2.5 18.75L24.9688 17.5625L25.0625 19.4375L2.59375 20.625V20.625M2.5 23.7188V21.8438H25V23.7188H2.5V23.7188M11.5625 11.875C13.1042 11.875 14.5885 11.6042 16.0156 11.0625C17.4427 10.5208 18.6875 9.6875 19.75 8.5625C19.875 9.4375 20.3333 10.1042 21.125 10.5625C21.9167 11.0208 22.7917 11.25 23.75 11.25V5C22.7917 5 21.9167 5.23438 21.125 5.70312C20.3333 6.17188 19.875 6.85417 19.75 7.75C18.6458 6.66667 17.3906 5.83333 15.9844 5.25C14.5781 4.66667 13.1042 4.375 11.5625 4.375C9.91667 4.375 8.33333 4.66146 6.8125 5.23438C5.29167 5.80729 4.0625 6.77083 3.125 8.125C4.0625 9.47917 5.29167 10.4427 6.8125 11.0156C8.33333 11.5885 9.91667 11.875 11.5625 11.875V11.875M2.5 2.5V2.5V2.5V2.5V13.75V13.75V13.75V13.75V13.75V13.75V2.5V2.5V2.5V2.5" fill="var(--fill-0, #6A9DD1)"/>
</g>
</svg>
