<svg preserveAspectRatio="none" width="100%" height="100%" overflow="visible" style="display: block;" viewBox="0 0 18 24" fill="none" xmlns="http://www.w3.org/2000/svg">
<g id="Margin">
<path id="Icon" d="M2 24C1.45 24 0.979167 23.8042 0.5875 23.4125C0.195833 23.0208 0 22.55 0 22V8C0 7.45 0.195833 6.97917 0.5875 6.5875C0.979167 6.19583 1.45 6 2 6H6.2C6.41667 5.4 6.77917 4.91667 7.2875 4.55C7.79583 4.18333 8.36667 4 9 4C9.63333 4 10.2042 4.18333 10.7125 4.55C11.2208 4.91667 11.5833 5.4 11.8 6H16C16.55 6 17.0208 6.19583 17.4125 6.5875C17.8042 6.97917 18 7.45 18 8V22C18 22.55 17.8042 23.0208 17.4125 23.4125C17.0208 23.8042 16.55 24 16 24H2V24M2 22H16V22V22V8V8V8H2V8V8V22V22V22V22M4 20H11V18H4V20V20M4 16H14V14H4V16V16M4 12H14V10H4V12V12M9 7.25C9.21667 7.25 9.39583 7.17917 9.5375 7.0375C9.67917 6.89583 9.75 6.71667 9.75 6.5C9.75 6.28333 9.67917 6.10417 9.5375 5.9625C9.39583 5.82083 9.21667 5.75 9 5.75C8.78333 5.75 8.60417 5.82083 8.4625 5.9625C8.32083 6.10417 8.25 6.28333 8.25 6.5C8.25 6.71667 8.32083 6.89583 8.4625 7.0375C8.60417 7.17917 8.78333 7.25 9 7.25V7.25M2 22V22V22V8V8V8V8V8V8V22V22V22V22V22" fill="var(--fill-0, #6A9DD1)"/>
</g>
</svg>
