<svg preserveAspectRatio="none" width="100%" height="100%" overflow="visible" style="display: block;" viewBox="0 0 20 20" fill="none" xmlns="http://www.w3.org/2000/svg">
<g id="Container">
<path id="Icon" d="M0 20C0 18.15 0.245833 16.5708 0.7375 15.2625C1.22917 13.9542 1.85833 12.8667 2.625 12C3.39167 11.1333 4.25 10.4625 5.2 9.9875C6.15 9.5125 7.08333 9.18333 8 9V6C5.71667 5.71667 3.8125 5.0125 2.2875 3.8875C0.7625 2.7625 0 1.46667 0 0H20C20 1.46667 19.2375 2.7625 17.7125 3.8875C16.1875 5.0125 14.2833 5.71667 12 6V9C12.9167 9.18333 13.85 9.5125 14.8 9.9875C15.75 10.4625 16.6083 11.1333 17.375 12C18.1417 12.8667 18.7708 13.9542 19.2625 15.2625C19.7542 16.5708 20 18.15 20 20H14V18H17.875C17.575 15.4667 16.6292 13.6333 15.0375 12.5C13.4458 11.3667 11.7667 10.8 10 10.8C8.23333 10.8 6.55417 11.3667 4.9625 12.5C3.37083 13.6333 2.425 15.4667 2.125 18H6V20H0V20M10 4.125C11.5167 4.125 12.8667 3.92083 14.05 3.5125C15.2333 3.10417 16.175 2.6 16.875 2H3.125C3.825 2.6 4.76667 3.10417 5.95 3.5125C7.13333 3.92083 8.48333 4.125 10 4.125V4.125M10 20C9.45 20 8.97917 19.8042 8.5875 19.4125C8.19583 19.0208 8 18.55 8 18C8 17.7167 8.05417 17.4583 8.1625 17.225C8.27083 16.9917 8.41667 16.7833 8.6 16.6C9 16.2 9.675 15.7792 10.625 15.3375C11.575 14.8958 12.7 14.45 14 14C13.5333 15.3 13.0833 16.425 12.65 17.375C12.2167 18.325 11.8 19 11.4 19.4C11.2167 19.5833 11.0083 19.7292 10.775 19.8375C10.5417 19.9458 10.2833 20 10 20V20M10 4.125V4.125V4.125V4.125V4.125V4.125V4.125" fill="var(--fill-0, #6A9DD1)"/>
</g>
</svg>
