<svg preserveAspectRatio="none" width="100%" height="100%" overflow="visible" style="display: block;" viewBox="0 0 16 25" fill="none" xmlns="http://www.w3.org/2000/svg">
<g id="Margin">
<path id="Icon" d="M2 25C1.45 25 0.979167 24.8042 0.5875 24.4125C0.195833 24.0208 0 23.55 0 23V13C0 12.45 0.195833 11.9792 0.5875 11.5875C0.979167 11.1958 1.45 11 2 11H3V9C3 7.61667 3.4875 6.4375 4.4625 5.4625C5.4375 4.4875 6.61667 4 8 4C9.38333 4 10.5625 4.4875 11.5375 5.4625C12.5125 6.4375 13 7.61667 13 9V11H14C14.55 11 15.0208 11.1958 15.4125 11.5875C15.8042 11.9792 16 12.45 16 13V23C16 23.55 15.8042 24.0208 15.4125 24.4125C15.0208 24.8042 14.55 25 14 25H2V25M2 23H14V23V23V13V13V13H2V13V13V23V23V23V23M8 20C8.55 20 9.02083 19.8042 9.4125 19.4125C9.80417 19.0208 10 18.55 10 18C10 17.45 9.80417 16.9792 9.4125 16.5875C9.02083 16.1958 8.55 16 8 16C7.45 16 6.97917 16.1958 6.5875 16.5875C6.19583 16.9792 6 17.45 6 18C6 18.55 6.19583 19.0208 6.5875 19.4125C6.97917 19.8042 7.45 20 8 20V20M5 11H11V9C11 8.16667 10.7083 7.45833 10.125 6.875C9.54167 6.29167 8.83333 6 8 6C7.16667 6 6.45833 6.29167 5.875 6.875C5.29167 7.45833 5 8.16667 5 9V11V11M2 23V23V23V13V13V13V13V13V13V23V23V23V23V23" fill="var(--fill-0, #6A9DD1)"/>
</g>
</svg>
