<svg preserveAspectRatio="none" width="100%" height="100%" overflow="visible" style="display: block;" viewBox="0 0 20 24" fill="none" xmlns="http://www.w3.org/2000/svg">
<g id="Margin">
<path id="Icon" d="M9 24V19.85L5.75 23.05L4.35 21.65L9 17V15H7L2.35 19.65L0.95 18.25L4.15 15H0V13H4.15L0.95 9.75L2.35 8.35L7 13H9V11L4.35 6.35L5.75 4.95L9 8.15V4H11V8.15L14.25 4.95L15.65 6.35L11 11V13H13L17.65 8.35L19.05 9.75L15.85 13H20V15H15.85L19.05 18.25L17.65 19.65L13 15H11V17L15.65 21.65L14.25 23.05L11 19.85V24H9V24" fill="var(--fill-0, #6A9DD1)"/>
</g>
</svg>
