<svg preserveAspectRatio="none" width="100%" height="100%" overflow="visible" style="display: block;" viewBox="0 0 20 23.75" fill="none" xmlns="http://www.w3.org/2000/svg">
<path id="Icon" d="M10 23.75C7.22917 23.75 4.86979 22.7917 2.92188 20.875C0.973958 18.9583 0 16.625 0 13.875C0 12.5208 0.260417 11.2552 0.78125 10.0781C1.30208 8.90104 2.02083 7.85417 2.9375 6.9375L10 0L17.0625 6.9375C17.9792 7.85417 18.6979 8.90104 19.2188 10.0781C19.7396 11.2552 20 12.5208 20 13.875C20 16.625 19.026 18.9583 17.0781 20.875C15.1302 22.7917 12.7708 23.75 10 23.75V23.75M2.5625 15H17.375C17.625 13.5 17.4844 12.2188 16.9531 11.1562C16.4219 10.0938 15.875 9.29167 15.3125 8.75L10 3.5L4.6875 8.75C4.125 9.29167 3.57292 10.0938 3.03125 11.1562C2.48958 12.2188 2.33333 13.5 2.5625 15V15" fill="var(--fill-0, #6A9DD1)"/>
</svg>
